<svg xmlns="http://www.w3.org/2000/svg" xmlns:xlink="http://www.w3.org/1999/xlink" width="329" height="320" viewBox="0 0 329 320"><defs><style>.a{fill:#fff;stroke:#707070;}.b{clip-path:url(#a);}.c{fill:#eff9fc;}.d{fill:url(#b);}</style><clipPath id="a"><rect class="a" width="320" height="329" transform="translate(1881 1004)"/></clipPath><radialGradient id="b" cx="0.676" cy="0.48" r="0.394" gradientTransform="matrix(-1.954, 0, 0, 1.351, 1.996, -0.168)" gradientUnits="objectBoundingBox"><stop offset="0" stop-color="#1888f3"/><stop offset="1" stop-color="#0045b7"/></radialGradient></defs><g class="b" transform="translate(1333 -1881) rotate(90)"><g transform="translate(1881 1333) rotate(-90)"><g transform="translate(0)"><path class="c" d="M0,0H9.5A319.5,319.5,0,0,1,329,319.5v0A319.5,319.5,0,0,1,9.5,639H0a0,0,0,0,1,0,0V0A0,0,0,0,1,0,0Z"/><path class="d" d="M0,0H6A256,256,0,0,1,262,256v0A256,256,0,0,1,6,512H0a0,0,0,0,1,0,0V0A0,0,0,0,1,0,0Z" transform="translate(0 57)"/></g></g></g></svg>