<svg xmlns="http://www.w3.org/2000/svg" width="172.074" height="148.938" viewBox="0 0 172.074 148.938"><defs><style>.a{fill:#707070;}</style></defs><path class="a" d="M89.749,91.965l-4.687-9.047a42.427,42.427,0,0,0,11.3-10.448l10.672,3.516a4.15,4.15,0,0,0,5.094-2l3.922-9a3.023,3.023,0,0,0-.092-2.628,3.778,3.778,0,0,0-2.2-1.8l-10.672-3.516a34.437,34.437,0,0,0-.5-14.338l10.4-4.075a3.687,3.687,0,0,0,2.072-1.915,3.023,3.023,0,0,0-.092-2.628l-4.547-8.776a4.209,4.209,0,0,0-5.224-1.721l-10.4,4.075a43.509,43.509,0,0,0-12.016-9.829l4.044-9.279a3.32,3.32,0,0,0-2.294-4.429L74.172.719A4.5,4.5,0,0,0,71.15.8a3.687,3.687,0,0,0-2.072,1.915l-4.043,9.278a51.966,51.966,0,0,0-16.49.437L43.86,3.383a3.778,3.778,0,0,0-2.2-1.8,4.5,4.5,0,0,0-3.022.08L28.541,5.616a3.269,3.269,0,0,0-1.979,4.542l4.687,9.047a42.427,42.427,0,0,0-11.3,10.448L9.273,26.138a4.506,4.506,0,0,0-3.022.08A3.687,3.687,0,0,0,4.18,28.133l-3.922,9a3.32,3.32,0,0,0,2.294,4.429l10.672,3.516a34.437,34.437,0,0,0,.5,14.338L3.322,63.492A3.687,3.687,0,0,0,1.25,65.408a3.023,3.023,0,0,0,.092,2.628l4.547,8.776a3.776,3.776,0,0,0,2.2,1.8,4.493,4.493,0,0,0,3.022-.08l10.4-4.075a43.485,43.485,0,0,0,12.016,9.829L29.49,93.565a3.32,3.32,0,0,0,2.294,4.429l10.352,3.41a4.5,4.5,0,0,0,3.022-.08,3.687,3.687,0,0,0,2.072-1.915l4.043-9.278a51.985,51.985,0,0,0,16.49-.437L72.45,98.74a3.778,3.778,0,0,0,2.2,1.8,4.493,4.493,0,0,0,3.022-.08l10.093-3.953A3.269,3.269,0,0,0,89.749,91.965ZM83.2,59.314c-3.921,9-13.989,15.046-25.053,15.046a30.266,30.266,0,0,1-9.485-1.518A25.444,25.444,0,0,1,33.733,60.627a20.378,20.378,0,0,1-.626-17.817c3.921-9,13.989-15.046,25.053-15.046a30.265,30.265,0,0,1,9.485,1.518A25.446,25.446,0,0,1,82.576,41.5,20.375,20.375,0,0,1,83.2,59.314Zm87.832,46.9a4.221,4.221,0,0,0-2.741-1.109l-7.441-.278a27.326,27.326,0,0,0-3.66-8.723l5.487-4.379a3.129,3.129,0,0,0,.239-4.853l-5.448-5.162a4.221,4.221,0,0,0-2.742-1.109,4.352,4.352,0,0,0-2.84.9L146.4,85.885a36.693,36.693,0,0,0-9.682-3.917l.319-6.47a3.666,3.666,0,0,0-3.778-3.578l-8.05-.3A3.787,3.787,0,0,0,121.1,74.9l-.319,6.47a37.575,37.575,0,0,0-10.032,3.182l-5.036-4.771a4.221,4.221,0,0,0-2.741-1.109,4.33,4.33,0,0,0-2.84.9l-5.937,4.737a3.129,3.129,0,0,0-.239,4.853l5.036,4.771a28.088,28.088,0,0,0-4.505,8.418l-7.44-.278a3.783,3.783,0,0,0-4.116,3.284l-.345,7a3.183,3.183,0,0,0,1.037,2.47,4.221,4.221,0,0,0,2.742,1.109l7.44.277a27.352,27.352,0,0,0,3.66,8.723l-5.486,4.379A3.269,3.269,0,0,0,90.7,131.7a3.183,3.183,0,0,0,1.037,2.47l5.448,5.162a4.222,4.222,0,0,0,2.742,1.109,4.341,4.341,0,0,0,2.84-.9l5.486-4.379a36.692,36.692,0,0,0,9.682,3.917l-.319,6.47a3.666,3.666,0,0,0,3.777,3.578l8.05.3c.057,0,.113,0,.169,0a4.3,4.3,0,0,0,2.671-.9,3.269,3.269,0,0,0,1.276-2.383l.319-6.47a37.575,37.575,0,0,0,10.032-3.182l5.036,4.771a4.221,4.221,0,0,0,2.741,1.109,4.305,4.305,0,0,0,2.84-.9l5.937-4.737a3.129,3.129,0,0,0,.239-4.853l-5.036-4.771a28.088,28.088,0,0,0,4.505-8.418l7.44.278a3.782,3.782,0,0,0,4.116-3.284l.345-7A3.183,3.183,0,0,0,171.034,106.218Zm-44.5,20.31c-10.148-.378-18.05-7.865-17.615-16.688.423-8.6,8.5-15.331,18.387-15.331q.4,0,.805.015c10.148.379,18.05,7.865,17.615,16.688S136.767,126.9,126.536,126.528Z" transform="translate(0 -0.496)"/></svg>