<svg xmlns="http://www.w3.org/2000/svg" width="144.583" height="113.169" viewBox="0 0 144.583 113.169"><defs><style>.a{fill:#707070;}</style></defs><g transform="translate(-109.001 -61.5)"><path class="a" d="M195.961,121.809c8.388,0,15.213-5.718,15.213-12.746s-6.825-12.747-15.213-12.747-15.211,5.718-15.211,12.747S187.573,121.809,195.961,121.809Zm0-18.017c3.469,0,6.291,2.364,6.291,5.271s-2.822,5.27-6.291,5.27-6.289-2.364-6.289-5.27S192.493,103.792,195.961,103.792Zm0,0" transform="translate(0.921 -17.445)"/><path class="a" d="M139.3.5H5.28A5.07,5.07,0,0,0,0,5.318V108.851a5.07,5.07,0,0,0,5.279,4.818H139.3a5.07,5.07,0,0,0,5.279-4.818V5.318A5.07,5.07,0,0,0,139.3.5Zm-3.192,7.732V69.415L109.468,45.1a4.769,4.769,0,0,0-6.3,0L65.487,79.491,41.417,57.525a4.762,4.762,0,0,0-6.3,0L8.472,81.837V8.232ZM8.472,105.937V92.771L38.264,65.582,62.334,87.548a4.759,4.759,0,0,0,6.3,0L106.32,53.159l29.793,27.19v25.588Zm0,0" transform="translate(109 61)"/></g></svg>