<svg xmlns="http://www.w3.org/2000/svg" xmlns:xlink="http://www.w3.org/1999/xlink" width="329" height="639" viewBox="0 0 329 639"><defs><style>.a{fill:#eff9fc;}.b{fill:url(#a);}</style><radialGradient id="a" cx="0.324" cy="0.48" r="0.532" gradientTransform="matrix(-1.446, 0, 0, 1, 0.794, 0)" gradientUnits="objectBoundingBox"><stop offset="0" stop-color="#1888f3"/><stop offset="1" stop-color="#0045b7"/></radialGradient></defs><g transform="translate(-1871 -87)"><g transform="translate(181.417 -80)"><path class="a" d="M319.5,0H329a0,0,0,0,1,0,0V639a0,0,0,0,1,0,0h-9.5A319.5,319.5,0,0,1,0,319.5v0A319.5,319.5,0,0,1,319.5,0Z" transform="translate(1689.583 167)"/><path class="b" d="M256,0h6a0,0,0,0,1,0,0V512a0,0,0,0,1,0,0h-6A256,256,0,0,1,0,256v0A256,256,0,0,1,256,0Z" transform="translate(1756.583 224)"/></g></g></svg>