<svg xmlns="http://www.w3.org/2000/svg" xmlns:xlink="http://www.w3.org/1999/xlink" width="329" height="639" viewBox="0 0 329 639"><defs><style>.a{fill:#eff9fc;}.b{fill:url(#a);}</style><radialGradient id="a" cx="0.676" cy="0.48" r="0.394" gradientTransform="matrix(-1.954, 0, 0, 1.351, 1.996, -0.168)" gradientUnits="objectBoundingBox"><stop offset="0" stop-color="#1888f3"/><stop offset="1" stop-color="#0045b7"/></radialGradient></defs><path class="a" d="M0,0H9.5A319.5,319.5,0,0,1,329,319.5v0A319.5,319.5,0,0,1,9.5,639H0a0,0,0,0,1,0,0V0A0,0,0,0,1,0,0Z"/><path class="b" d="M0,0H6A256,256,0,0,1,262,256v0A256,256,0,0,1,6,512H0a0,0,0,0,1,0,0V0A0,0,0,0,1,0,0Z" transform="translate(0 57)"/></svg>