<svg xmlns="http://www.w3.org/2000/svg" width="181.828" height="125.345" viewBox="0 0 181.828 125.345"><defs><style>.a{fill:#707070;}</style></defs><g transform="translate(-975.523 -1389)"><path class="a" d="M47.322,6.8a22.716,22.716,0,0,0-32.407,0C6.905,14.9,5.91,30.16,12.759,39.4L31.119,66.248,49.451,39.441C56.328,30.16,55.332,14.9,47.322,6.8ZM31.33,31.456a8.47,8.47,0,1,1,8.365-8.469A8.428,8.428,0,0,1,31.33,31.456Z" transform="translate(967.321 1448.097)"/><path class="a" d="M47.322,6.8a22.716,22.716,0,0,0-32.407,0C6.905,14.9,5.91,30.16,12.759,39.4L31.119,66.248,49.451,39.441C56.328,30.16,55.332,14.9,47.322,6.8ZM31.33,31.456a8.47,8.47,0,1,1,8.365-8.469A8.428,8.428,0,0,1,31.33,31.456Z" transform="translate(1103.321 1448.097)"/><path class="a" d="M79.243,12.819a40.182,40.182,0,0,0-58.851,0c-14.546,15.3-16.353,44.074-3.915,61.51l33.34,50.637L83.108,74.4C95.6,56.893,93.789,28.114,79.243,12.819ZM50.2,59.337c-8.374,0-15.19-7.168-15.19-15.975S41.828,27.386,50.2,27.386s15.19,7.168,15.19,15.975S58.576,59.337,50.2,59.337Z" transform="translate(1016.797 1389)"/></g></svg>