<svg xmlns="http://www.w3.org/2000/svg" width="84.474" height="141.353" viewBox="0 0 84.474 141.353"><defs><style>.a{fill:#707070;}</style></defs><g transform="translate(-7.334)"><path class="a" d="M81.986,0H17.156A9.714,9.714,0,0,0,7.334,9.547V131.8a9.718,9.718,0,0,0,9.822,9.551H81.986a9.712,9.712,0,0,0,9.822-9.547V9.547A9.714,9.714,0,0,0,81.986,0ZM39.2,6.882h20.74a1.157,1.157,0,1,1,0,2.314H39.2a1.157,1.157,0,1,1,0-2.314Zm10.37,129.7a4.778,4.778,0,1,1,4.911-4.778A4.843,4.843,0,0,1,49.571,136.579Zm35.4-12.9H14.169V15.141H84.974Z" transform="translate(0)"/></g></svg>