<svg xmlns="http://www.w3.org/2000/svg" width="94.999" height="1075.908" viewBox="0 0 94.999 1075.908"><defs><style>.a,.b,.c,.d{fill:rgba(0,0,0,0);stroke-width:15px;}.a{stroke:rgba(49,175,213,0.6);}.b{stroke:rgba(49,175,213,0.3);}.c{stroke:rgba(49,175,213,0.2);}.d{stroke:rgba(49,175,213,0.1);}</style></defs><g transform="translate(-278.001 -1.75)"><path class="a" d="M-566,801.876c-16.293,0-29.5-11.979-29.5-26.755s13.208-26.756,29.5-26.756V343.343c-22.091,0-40-17.089-40-38.171S-588.091,267-566,267s40,17.09,40,38.172-17.908,38.171-40,38.171V748.364c16.292,0,29.5,11.979,29.5,26.756s-13.208,26.755-29.5,26.755V1249.25Z" transform="translate(891.5 -257.75)"/><g transform="translate(23 -3547)"><path class="b" d="M0,0V34" transform="translate(302.5 4546.5)"/><path class="c" d="M0,0V17.982" transform="translate(302.5 4588.5)"/><path class="d" d="M0,0V11.158" transform="translate(302.5 4613.5)"/></g></g></svg>