<?xml version="1.0" encoding="iso-8859-1"?>
<!-- Generator: Adobe Illustrator 19.0.0, SVG Export Plug-In . SVG Version: 6.00 Build 0)  -->
<svg version="1.1" id="Capa_1" xmlns="http://www.w3.org/2000/svg" xmlns:xlink="http://www.w3.org/1999/xlink" x="0px" y="0px"
	 viewBox="0 0 395.947 395.947" fill="#707070" style="enable-background:new 0 0 395.947 395.947;" xml:space="preserve">
<g>
	<g>
		<path d="M143.42,44.373H20.42C9.16,44.373,0,53.54,0,64.8v47.893c0,11.261,9.16,20.427,20.42,20.427H143.42
			c11.261,0,20.42-9.167,20.42-20.427V64.8C163.84,53.54,154.68,44.373,143.42,44.373z M150.187,112.693
			c0,3.734-3.033,6.774-6.767,6.774H20.42c-3.734,0-6.767-3.04-6.767-6.774V64.8c0-3.734,3.033-6.774,6.767-6.774H143.42
			c3.734,0,6.767,3.04,6.767,6.774V112.693z"/>
	</g>
</g>
<g>
	<g>
		<path d="M136.533,3.413H27.307c-3.773,0-6.827,3.053-6.827,6.827V51.2c0,3.773,3.053,6.827,6.827,6.827h109.227
			c3.773,0,6.827-3.053,6.827-6.827V10.24C143.36,6.467,140.307,3.413,136.533,3.413z M129.707,44.373H34.133V17.067h95.573V44.373z
			"/>
	</g>
</g>
<g>
	<g>
		<path d="M54.613,10.24c-3.773,0-6.827,3.053-6.827,6.827V30.72c0,3.773,3.053,6.827,6.827,6.827s6.827-3.053,6.827-6.827V17.067
			C61.44,13.293,58.387,10.24,54.613,10.24z"/>
	</g>
</g>
<g>
	<g>
		<path d="M129.707,71.68H34.133c-3.773,0-6.827,3.053-6.827,6.827s3.053,6.827,6.827,6.827h95.573c3.773,0,6.827-3.053,6.827-6.827
			S133.48,71.68,129.707,71.68z"/>
	</g>
</g>
<g>
	<g>
		<path d="M129.707,92.16H34.133c-3.773,0-6.827,3.053-6.827,6.827s3.053,6.827,6.827,6.827h95.573c3.773,0,6.827-3.053,6.827-6.827
			S133.48,92.16,129.707,92.16z"/>
	</g>
</g>
<g>
	<g>
		<path d="M361.813,187.733H266.24c-3.773,0-6.827,3.053-6.827,6.827v96.427c0,13.047-8.52,31.087-18.606,39.395l-60.827,50.053
			c-2.22,1.833-3.062,4.867-2.087,7.579c0.974,2.712,3.546,4.519,6.427,4.519H273c13.1,0,30.601-7.207,39.847-16.401l34.4-34.26
			c12-11.947,21.393-34.546,21.393-51.459V194.56C368.64,190.787,365.587,187.733,361.813,187.733z M354.987,290.415
			c0,13.273-7.953,32.406-17.374,41.779l-34.4,34.26c-6.653,6.62-20.774,12.426-30.213,12.426H203.36l46.128-37.96
			c13.22-10.894,23.579-32.828,23.579-49.934v-89.6h81.92V290.415z"/>
	</g>
</g>
<g>
	<g>
		<path d="M375.526,112.64h-123c-11.261,0-20.42,9.167-20.42,20.427v47.892c0,11.261,9.16,20.427,20.42,20.427h123
			c11.261,0,20.42-9.167,20.42-20.427v-47.892C395.947,121.807,386.787,112.64,375.526,112.64z M382.293,180.96
			c0,3.734-3.033,6.774-6.767,6.774h-123c-3.734,0-6.767-3.04-6.767-6.774v-47.893c0-3.734,3.033-6.774,6.767-6.774h123
			c3.734,0,6.767,3.04,6.767,6.774V180.96z"/>
	</g>
</g>
<g>
	<g>
		<path d="M368.64,71.68H259.413c-3.773,0-6.827,3.053-6.827,6.827v40.96c0,3.773,3.053,6.827,6.827,6.827H368.64
			c3.773,0,6.827-3.053,6.827-6.827v-40.96C375.467,74.733,372.413,71.68,368.64,71.68z M361.813,112.64H266.24V85.333h95.573
			V112.64z"/>
	</g>
</g>
<g>
	<g>
		<path d="M286.72,78.507c-3.773,0-6.827,3.053-6.827,6.827v13.653c0,3.773,3.053,6.827,6.827,6.827s6.827-3.053,6.827-6.827V85.333
			C293.547,81.56,290.493,78.507,286.72,78.507z"/>
	</g>
</g>
<g>
	<g>
		<path d="M361.813,139.947H266.24c-3.773,0-6.827,3.053-6.827,6.827s3.053,6.827,6.827,6.827h95.573
			c3.773,0,6.827-3.053,6.827-6.827S365.587,139.947,361.813,139.947z"/>
	</g>
</g>
<g>
	<g>
		<path d="M361.813,160.427H266.24c-3.773,0-6.827,3.053-6.827,6.827s3.053,6.827,6.827,6.827h95.573
			c3.773,0,6.827-3.053,6.827-6.827S365.587,160.427,361.813,160.427z"/>
	</g>
</g>
<g>
	<g>
		<path d="M199.827,367.154l-44.687-36.767c-10.086-8.313-18.606-26.353-18.606-39.4V126.293c0-3.773-3.053-6.827-6.827-6.827
			H34.133c-3.773,0-6.827,3.053-6.827,6.827v164.122c0,16.913,9.393,39.513,21.386,51.459l34.413,34.26
			c9.24,9.192,26.74,16.399,39.84,16.399h61.373c3.773,0,6.827-3.055,6.827-6.828s-3.053-6.827-6.827-6.827h-61.373
			c-9.44,0-23.559-5.806-30.206-12.426l-34.413-34.26c-9.414-9.373-17.367-28.506-17.367-41.779V133.12h81.92v157.867
			c0,17.106,10.359,39.04,23.579,49.94l44.687,36.774c2.913,2.4,7.214,1.973,9.614-0.934
			C203.153,373.854,202.733,369.553,199.827,367.154z"/>
	</g>
</g>
<g>
	<g>
		<path d="M156.061,360.868l-47.874-46.894c-6.84-6.694-12.614-20.413-12.614-29.967v-123.58c0-3.773-3.053-6.827-6.827-6.827
			s-6.827,3.053-6.827,6.827v123.58c0,13.1,7.34,30.548,16.707,39.726l47.874,46.894c1.333,1.301,3.053,1.947,4.78,1.947
			c1.773,0,3.54-0.688,4.881-2.046C158.795,367.834,158.754,363.508,156.061,360.868z"/>
	</g>
</g>
<g>
	<g>
		<path d="M120.393,357.714L80.399,314.82c-6.467-6.934-12.133-21.326-12.133-30.814v-123.58c0-3.773-3.053-6.827-6.827-6.827
			c-3.773,0-6.827,3.053-6.827,6.827v123.58c0,13,6.939,30.626,15.799,40.12l39.994,42.894c1.347,1.446,3.168,2.173,4.994,2.173
			c1.667,0,3.34-0.606,4.654-1.833C122.813,364.788,122.967,360.467,120.393,357.714z"/>
	</g>
</g>
<g>
	<g>
		<path d="M293.547,235.52c-3.773,0-6.827,3.053-6.827,6.827v55.613c0,7.4-1.946,17.234-5.673,21.714l-20.06,24.153
			c-2.408,2.9-2.007,7.2,0.893,9.614c1.273,1.06,2.821,1.574,4.354,1.574c1.961,0,3.907-0.841,5.26-2.468l20.053-24.146
			c6.514-7.84,8.827-21.294,8.827-30.44v-55.613C300.373,238.573,297.32,235.52,293.547,235.52z"/>
	</g>
</g>
<g>
	<g>
		<path d="M320.853,235.52c-3.773,0-6.827,3.053-6.827,6.827v55.613c0,7.4-1.946,17.234-5.673,21.714l-20.06,24.153
			c-2.408,2.9-2.007,7.2,0.893,9.614c1.273,1.06,2.821,1.574,4.354,1.574c1.961,0,3.907-0.841,5.26-2.468l20.053-24.146
			c6.514-7.84,8.827-21.294,8.827-30.44v-55.613C327.68,238.573,324.627,235.52,320.853,235.52z"/>
	</g>
</g>
<g>
</g>
<g>
</g>
<g>
</g>
<g>
</g>
<g>
</g>
<g>
</g>
<g>
</g>
<g>
</g>
<g>
</g>
<g>
</g>
<g>
</g>
<g>
</g>
<g>
</g>
<g>
</g>
<g>
</g>
</svg>
