<svg height="512pt" viewBox="-8 0 512 512" fill="#707070" width="512pt" xmlns="http://www.w3.org/2000/svg"><path d="m79.265625 198.699219h7.863281l-5.210937 10.425781c-3.707031 7.410156-.703125 16.417969 6.707031 20.125 7.40625 3.703125 16.417969.703125 20.125-6.707031l16.066406-32.132813c2.324219-4.652344 2.078125-10.175781-.65625-14.597656s-7.5625-7.113281-12.761718-7.113281h-7.863282l5.214844-10.425781c3.703125-7.410157.699219-16.417969-6.710938-20.125-7.40625-3.703126-16.417968-.699219-20.121093 6.710937l-16.066407 32.132813c-2.324218 4.648437-2.078124 10.171874.65625 14.59375 2.730469 4.421874 7.5625 7.113281 12.757813 7.113281zm0 0"/><path d="m384.53125 0c-61.515625 0-111.398438 49.769531-111.398438 111.398438v289.203124c0 44.882813-36.515624 81.398438-81.398437 81.398438s-81.398437-36.515625-81.398437-81.398438v-33.203124h17.132812c8.28125 0 15-6.714844 15-15v-49.265626h1.0625c25.917969 0 47.136719-20.953124 47.136719-47.132812v-176.734375c0-8.28125-6.71875-15-15-15h-17.136719v-49.265625c0-8.285156-6.714844-15-15-15h-96.398438c-8.28125 0-15 6.714844-15 15v49.265625h-17.132812c-8.285156 0-15 6.71875-15 15v176.734375c0 26.304688 21.351562 47.132812 47.132812 47.132812h1.066407v49.265626c0 8.285156 6.714843 15 15 15h17.132812v33.203124c0 61.425782 49.976563 111.398438 111.402344 111.398438s111.398437-49.972656 111.398437-111.398438v-289.203124c0-44.945313 36.363282-81.398438 81.398438-81.398438 44.886719 0 81.402344 36.515625 81.402344 81.398438v385.601562c0 8.285156 6.714844 15 15 15 8.28125 0 15-6.714844 15-15v-385.601562c0-61.425782-49.972656-111.398438-111.402344-111.398438zm-322.398438 30h66.398438v34.265625h-66.398438zm-32.132812 226v-161.734375h130.667969v161.734375c0 9.335938-7.546875 17.132812-17.136719 17.132812h-96.398438c-9.335937 0-17.132812-7.546874-17.132812-17.132812zm48.199219 47.132812h34.269531v34.265626h-34.269531zm0 0"/></svg>